PathFileType  4	(X/Y/Z) C:\Users\antoi\Documents\MyRepositories\mobilecap\ResultsAnalysis
DataRate	CameraRate	NumFrames	NumMarkers	Units	OrigDataRate	OrigDataStartFrame	OrigNumFrames
100.0	100.0	4	51	mm	100.0	1	129
Frame#	Time	r_knee			r_shank_antsup			r_ankle			r_calc			r_5meta			r_toe			L_knee			L_shank_antsup			L_ankle			L_calc			L_5meta			L_toe			r_sh2			r_sh3			r_sh4			L_sh2			L_sh3			r_thigh1			r_thigh2			r_thigh3			r_thigh4			r_thigh5			L_thigh1			L_thigh2			L_thigh3			L_thigh4			r.ASIS			r.PSIS			L.ASIS			L.PSIS			C7			R_Shoulder			L_Shoulder			R_Sternum			L_Sternum			R_humerus			R_elbow_med			R_elbow_lat			R_forearm			R_wrist_radius			R_wrist_ulna			L_humerus			L_elbow_med			L_elbow_lat			L_forearm			L_wrist_radius			L_wrist_ulna			R_HJC			L_HJC			R_HJC_reg			L_HJC_reg			
		X1	Y1	Z1	X2	Y2	Z2	X3	Y3	Z3	X4	Y4	Z4	X5	Y5	Z5	X6	Y6	Z6	X7	Y7	Z7	X8	Y8	Z8	X9	Y9	Z9	X10	Y10	Z10	X11	Y11	Z11	X12	Y12	Z12	X13	Y13	Z13	X14	Y14	Z14	X15	Y15	Z15	X16	Y16	Z16	X17	Y17	Z17	X18	Y18	Z18	X19	Y19	Z19	X20	Y20	Z20	X21	Y21	Z21	X22	Y22	Z22	X23	Y23	Z23	X24	Y24	Z24	X25	Y25	Z25	X26	Y26	Z26	X27	Y27	Z27	X28	Y28	Z28	X29	Y29	Z29	X30	Y30	Z30	X31	Y31	Z31	X32	Y32	Z32	X33	Y33	Z33	X34	Y34	Z34	X35	Y35	Z35	X36	Y36	Z36	X37	Y37	Z37	X38	Y38	Z38	X39	Y39	Z39	X40	Y40	Z40	X41	Y41	Z41	X42	Y42	Z42	X43	Y43	Z43	X44	Y44	Z44	X45	Y45	Z45	X46	Y46	Z46	X47	Y47	Z47	X48	Y48	Z48	X49	Y49	Z49	X50	Y50	Z50	X51	Y51	Z51	

1	0.00000000	88.74730	461.72959	-103.09888	141.52719	419.08590	-105.31830	212.55917	91.04188	-126.70542	177.23506	44.62846	-175.89917	334.80176	86.68549	-105.39689	359.84202	132.13848	-153.46401	-190.41806	460.15230	-331.82435	-185.27767	369.89343	-312.33624	-363.98893	114.06507	-291.87081	-429.71215	92.51310	-251.15454	-275.81397	39.95535	-316.72683	-226.48520	46.11785	-260.21849	167.56405	309.51636	-99.18791	70.84092	403.48856	-79.81360	88.64720	287.94037	-82.34851	-251.67706	414.32073	-355.15561	-308.74458	305.61830	-355.99780	48.26192	706.48404	-52.62107	88.51550	602.95204	-74.84648	35.46621	557.95380	-68.78383	-58.90354	664.94541	-58.19275	-16.02806	558.35259	-91.12023	-61.45083	706.93518	-404.52792	-95.85929	577.55800	-364.60434	-169.38198	730.67350	-406.61254	-204.18664	614.16438	-345.01963	36.90401	899.24976	-125.51377	-179.15015	924.67411	-181.34195	24.42225	891.17280	-347.95597	-180.81116	927.22939	-261.14927	-86.20207	1369.61474	-227.59945	-53.27943	1334.05567	-82.85993	-37.97504	1342.29764	-360.94807	35.17323	1301.72530	-195.77535	35.86695	1301.66740	-237.06279	-62.66126	1222.29389	-16.57179	-185.34529	1037.20251	-42.91200	-160.66453	1044.27026	17.97202	-117.11287	964.27409	46.92792	-106.63093	820.10538	60.68757	-142.41004	823.79026	82.37622	-19.14066	1248.84440	-437.62463	-41.70610	1019.78957	-452.14115	-10.62983	1053.83906	-504.19118	84.47175	1001.31714	-499.94714	177.59310	915.21657	-475.83964	158.35047	896.16035	-509.11884	-44.65602	811.21395	-122.37486	-60.49648	808.35600	-329.25567	-36.90141	821.97984	-156.74548	-39.96205	826.68798	-303.77646	
2	0.01000000	100.74140	460.21971	-103.67574	153.03861	416.95981	-106.57903	217.91848	88.33718	-128.09924	180.67396	44.80228	-176.80556	339.39855	80.66835	-108.04744	366.11535	124.96951	-156.53329	-177.97295	459.23621	-332.48267	-175.24995	368.72950	-313.42762	-360.63821	117.29911	-293.33486	-426.96448	98.02094	-252.31463	-275.21177	39.84636	-316.66760	-225.87461	44.79771	-260.71645	177.00715	306.91719	-101.10971	82.06929	402.42913	-80.39938	97.94157	286.60119	-83.11386	-240.01005	415.06125	-355.94906	-300.22544	308.05630	-357.01006	62.08636	705.45916	-51.78280	101.78241	601.78570	-74.23153	48.48088	557.13259	-68.92137	-45.39218	664.26962	-57.47259	-3.45787	558.16928	-91.07575	-48.24052	705.87211	-404.20138	-82.83604	576.44426	-364.83448	-156.13512	729.77620	-406.31295	-191.04821	613.02620	-345.02236	50.65720	898.65574	-124.76208	-165.68785	923.49491	-181.19675	38.31538	889.93100	-347.63459	-167.19442	925.90155	-261.00018	-73.64550	1368.54791	-225.78787	-40.56127	1332.79856	-81.14279	-25.45705	1341.58123	-359.24418	48.02765	1300.63683	-194.10421	48.58205	1300.73241	-235.38336	-49.91128	1220.82400	-15.19055	-172.03880	1035.58178	-42.48681	-147.97450	1042.69028	18.59530	-104.33949	962.62750	47.62331	-93.48910	818.42178	61.12995	-129.50684	822.01554	82.61455	-6.87434	1248.00076	-435.94012	-30.69096	1018.94281	-450.10958	0.05104	1052.81075	-502.28814	94.75594	999.20380	-498.70726	186.93606	911.97828	-475.17130	167.31738	893.12316	-508.39021	-30.91844	810.47376	-121.72740	-46.49266	807.02901	-328.62048	-23.12358	820.91412	-156.06479	-25.90005	825.35386	-303.40482	
3	0.02000000	112.58051	458.92835	-104.10352	164.55749	415.00233	-107.66820	223.13839	85.80207	-129.36294	183.98598	45.10193	-177.62749	343.84055	74.65099	-110.50141	372.23000	117.74918	-159.38595	-165.14784	458.31951	-333.25726	-164.85662	367.57842	-314.70059	-357.02424	120.70915	-294.92752	-423.88325	103.82975	-253.59325	-274.49849	39.72644	-316.69455	-225.12041	43.50932	-261.25309	186.52532	304.55205	-102.86190	93.35716	401.55723	-80.85039	107.32684	285.46957	-83.72021	-228.00964	415.86644	-356.83202	-291.42965	310.64680	-358.08449	75.75800	704.52483	-50.81125	114.82926	600.65559	-73.52026	61.22273	556.41150	-69.01352	-32.02219	663.81352	-56.74537	8.89637	558.07480	-90.99880	-34.83255	704.91846	-403.86448	-69.53531	575.37532	-365.13764	-142.69990	728.92308	-405.96757	-177.64303	611.88537	-345.05615	64.42773	898.18259	-123.95958	-152.14330	922.45063	-181.06302	52.32314	888.81242	-347.25465	-153.45480	924.69213	-260.84307	-61.07412	1367.60538	-223.94434	-27.77328	1331.64552	-79.39917	-12.96625	1340.98084	-357.53281	60.90240	1299.68074	-192.43624	61.31795	1299.94440	-233.71028	-37.01550	1219.45189	-13.81107	-158.61057	1034.03255	-42.00865	-135.10684	1041.17486	19.24795	-91.36696	961.04641	48.30951	-80.13767	816.80728	61.53519	-116.37563	820.29526	82.82755	5.32023	1247.26418	-434.24982	-19.71433	1018.21793	-448.01875	10.72064	1051.86907	-500.33962	104.97229	997.12080	-497.45051	196.15064	908.71141	-474.52427	176.13408	890.08410	-507.67000	-17.13689	809.85676	-121.04388	-32.37704	805.82597	-327.95321	-9.32106	819.99927	-155.35190	-11.73814	824.14031	-302.99485	
4	0.03000000	124.20488	458.04305	-104.25335	176.10392	413.34835	-108.42429	228.07294	83.57986	-130.39557	187.04932	45.62134	-178.29731	347.98067	68.69567	-112.59095	378.02556	110.50726	-161.83640	-151.59816	457.38817	-334.25032	-153.78173	366.44122	-316.31696	-352.89809	124.44543	-296.74859	-420.16740	110.21514	-255.09159	-273.58441	39.59909	-316.86701	-224.11415	42.27869	-261.85548	196.13895	302.58593	-104.27836	104.74872	401.03538	-81.03741	116.82620	284.72106	-84.02897	-215.37743	416.78539	-357.87828	-282.09141	313.51137	-359.27597	89.14227	703.78876	-49.61520	127.51538	599.64199	-72.63290	73.52057	555.89579	-69.00399	-18.90081	663.74890	-56.00379	20.89400	558.16324	-90.84613	-21.05158	704.15644	-403.50176	-55.70457	574.38143	-365.57449	-128.91491	728.13580	-405.54047	-163.72623	610.72068	-345.14625	78.20875	897.93457	-123.07063	-138.46822	921.66889	-180.94480	66.52415	887.92173	-346.75996	-139.51581	923.71344	-260.68003	-48.48060	1366.89549	-222.05070	-14.86725	1330.68978	-77.61185	-0.52210	1340.59894	-355.81222	73.81289	1298.97468	-190.77655	74.08968	1299.42798	-232.04988	-23.86779	1218.25918	-12.43646	-144.95754	1032.61916	-41.43521	-121.90614	1039.77847	19.95197	-78.02213	959.58886	48.97530	-66.40082	815.32151	61.86836	-102.82313	818.68180	82.99797	17.38744	1246.72743	-432.55239	-8.80258	1017.71505	-445.81981	21.36984	1051.09291	-498.30593	115.06646	995.10114	-496.16053	205.12322	905.39393	-473.91877	184.66863	887.04881	-506.96750	-3.30183	809.47413	-120.29363	-18.08197	804.85671	-327.22618	4.50787	819.37412	-154.57815	2.57792	823.15728	-302.50288	
